PathFileType	4	(x/y/z)	TRC_MarkerData\Passive\Passive_Pref0009.trc
DataRate	CameraRate	NumFrames	NumMarkers	Units	OrigDataRate	OrigDataStartFrame	OrigNumFrames
240	240	8	50	mm	240	1	262
Frame#	Time	R_AC			L_AC			HEAD			STERN			L_IC			R_IC			L_ASIS			R_ASIS			L_GT			R_GT			L_PSIS			R_PSIS			SACRAL			L_LAT_KNEE			L_MED_KNEE			R_LAT_KNEE			R_MED_KNEE			L_LAT_ANK			L_MED_ANK			R_LAT_ANK			R_MED_ANK			L_THIGH_PROX_POST			L_THIGH_PROX_ANT			L_THIGH_DIST_ANT			L_THIGH_DIST_POST			R_THIGH_PROX_POST			R_THIGH_PROX_ANT			R_THIGH_DIST_ANT			R_THIGH_DIST_POST			L_SHANK_PROX_POST			L_SHANK_PROX_ANT			L_SHANK_DIST_ANT			L_SHANK_DIST_POST			R_SHANK_PROX_POST			R_SHANK_PROX_ANT			R_SHANK_DIST_ANT			R_SHANK_DIST_POST			L_HEEL_LAT			L_HEEL_SUP			L_HEEL_MED			R_HEEL_LAT			R_HEEL_SUP			R_HEEL_MED			L_1ST_MET			L_5TH_MET			L_TOE			R_1ST_MET			R_5TH_MET			R_TOE			C7			
		X1	Y1	Z1	X2	Y2	Z2	X3	Y3	Z3	X4	Y4	Z4	X5	Y5	Z5	X6	Y6	Z6	X7	Y7	Z7	X8	Y8	Z8	X9	Y9	Z9	X10	Y10	Z10	X11	Y11	Z11	X12	Y12	Z12	X13	Y13	Z13	X14	Y14	Z14	X15	Y15	Z15	X16	Y16	Z16	X17	Y17	Z17	X18	Y18	Z18	X19	Y19	Z19	X20	Y20	Z20	X21	Y21	Z21	X22	Y22	Z22	X23	Y23	Z23	X24	Y24	Z24	X25	Y25	Z25	X26	Y26	Z26	X27	Y27	Z27	X28	Y28	Z28	X29	Y29	Z29	X30	Y30	Z30	X31	Y31	Z31	X32	Y32	Z32	X33	Y33	Z33	X34	Y34	Z34	X35	Y35	Z35	X36	Y36	Z36	X37	Y37	Z37	X38	Y38	Z38	X39	Y39	Z39	X40	Y40	Z40	X41	Y41	Z41	X42	Y42	Z42	X43	Y43	Z43	X44	Y44	Z44	X45	Y45	Z45	X46	Y46	Z46	X47	Y47	Z47	X48	Y48	Z48	X49	Y49	Z49	X50	Y50	Z50	

1	0	-825.63	1495.7	459.18	-851.57	1497.9	107.64	-818.74	1776.6	274.13	-800.46	1436.1	284.11	-888.23	1072.6	129.5	-876.47	1086.6	456.08	-824.99	997.69	154.42	-808.55	991.95	429.01	-890.11	907.05	99.774	-904.38	932.02	488.98	-1002.5	1051.5	249.06	-997.58	1059.7	340.88	-1016	1024.8	296.3	-742.25	531.04	154.88	-770.54	505.43	286.33	-1052.6	547.96	441.41	-1056.3	560.22	306.76	-588.02	138.96	157.44	-587.01	136.25	229.93	-1258.7	163.65	412.38	-1242	176.73	322.91	-841.63	739.33	129.65	-780.95	758.27	150.02	-756.09	689.87	165.24	-814.84	668.8	141.32	-1014.2	754.51	458.06	-948.3	739.27	465.4	-970.99	668.17	454.18	-1036	684.03	445.31	-720.53	446.29	152.97	-687.31	472.63	181.77	-672.46	415.62	183.61	-718.7	382.48	170.49	-1179.9	421	445.42	-1116.9	394.82	443.79	-1150.3	326.49	431.53	-1214.1	355.79	428.78	-630.16	39.399	157.99	-651.73	60.595	193.15	-627.16	35.066	225.47	-1354.9	129.61	386.95	-1342.8	155.68	354.46	-1334.8	122.19	322.43	-444.98	135.26	242.62	-465.76	112.64	135.85	-394.28	169.5	210.15	-1155	52.115	346.85	-1189	54.942	445.9	-1106.5	46.305	399.08	-913.15	1555	286.77
2	0.0041826	-820.39	1494.6	458.17	-846.54	1496.7	106.7	-813.92	1775.5	273.39	-795.18	1435	283.24	-882.48	1071.3	128.86	-870.83	1085.3	455.56	-819.08	996.51	153.91	-802.96	990.65	428.54	-884.02	905.94	99.141	-899.19	930.82	488.46	-996.78	1050.2	248.42	-991.89	1058.4	340.24	-1010.2	1023.5	295.61	-736.67	530.04	154.11	-765.4	504.59	285.59	-1048.4	547.26	440.81	-1051.6	559.31	306.19	-585.26	136.94	156.91	-584.34	134.27	229.42	-1257.2	164.5	412.22	-1240.3	177.34	322.76	-835.61	738.32	129	-775.05	757.16	149.55	-750.22	688.74	164.7	-808.96	667.74	140.7	-1009.4	753.7	457.3	-943.55	738.27	464.91	-966.4	667.24	453.69	-1031.3	683.26	444.52	-715.6	445.15	152.3	-682.25	471.26	181.14	-667.79	414.13	183.01	-714.24	381.32	169.81	-1176.5	421.28	444.77	-1113.7	394.59	443.37	-1147.7	326.57	431.18	-1211.2	356.38	428.41	-628.63	38.607	157.45	-649.46	60.301	192.5	-625.76	34.506	224.81	-1353.6	131.33	386.73	-1341.3	157.25	354.16	-1333.6	123.73	322.17	-442.23	131.46	242.16	-463.23	109.04	135.45	-391.06	164.94	209.76	-1155	51.995	346.89	-1188.8	54.97	445.88	-1106.5	46.322	399.09	-908.07	1553.7	285.82
3	0.0083653	-814.93	1493.5	457.12	-841.28	1495.5	105.7	-808.9	1774.4	272.62	-789.67	1433.8	282.31	-876.47	1070.1	128.18	-864.92	1084	455.01	-812.91	995.31	153.38	-797.12	989.31	428.04	-877.7	904.81	98.485	-893.75	929.58	487.91	-990.77	1048.9	247.77	-985.95	1057	339.58	-1004	1022.1	294.9	-730.89	529.04	153.32	-760.04	503.78	284.84	-1043.8	546.52	440.17	-1046.5	558.34	305.59	-582.42	134.88	156.37	-581.6	132.26	228.92	-1255.6	165.41	412.07	-1238.5	177.98	322.63	-829.37	737.3	128.32	-768.95	756.02	149.03	-744.14	687.58	164.09	-802.88	666.67	140.06	-1004.3	752.84	456.5	-938.57	737.24	464.41	-961.56	666.27	453.17	-1026.4	682.46	443.69	-710.48	444	151.61	-676.98	469.88	180.49	-662.96	412.62	182.4	-709.62	380.16	169.12	-1173	421.59	444.09	-1110.3	394.37	442.93	-1144.8	326.66	430.84	-1208	357.01	428	-627.09	37.846	156.92	-647.16	60.053	191.87	-624.34	33.984	224.17	-1352.3	133.17	386.51	-1339.6	158.92	353.84	-1332.3	125.38	321.89	-439.4	127.52	241.68	-460.66	105.32	135.03	-387.75	160.19	209.33	-1155	51.872	346.92	-1188.5	55	445.86	-1106.6	46.337	399.09	-902.78	1552.4	284.81
4	0.012548	-809.27	1492.3	456.02	-835.83	1494.3	104.66	-803.71	1773.3	271.83	-783.96	1432.6	281.33	-870.24	1068.7	127.47	-858.79	1082.7	454.45	-806.52	994.09	152.82	-791.06	987.94	427.53	-871.19	903.66	97.811	-888.08	928.31	487.35	-984.55	1047.5	247.09	-979.79	1055.7	338.89	-997.69	1020.8	294.17	-724.93	528.06	152.52	-754.5	503.02	284.08	-1039.1	545.76	439.52	-1041.3	557.34	304.97	-579.54	132.81	155.84	-578.81	130.25	228.41	-1253.9	166.36	411.93	-1236.5	178.65	322.51	-822.98	736.26	127.62	-762.67	754.85	148.45	-737.87	686.41	163.43	-796.64	665.58	139.39	-999.01	751.96	455.67	-933.37	736.18	463.89	-956.51	665.27	452.63	-1021.3	681.62	442.83	-705.22	442.86	150.91	-671.56	468.5	179.81	-657.98	411.12	181.77	-704.88	379.02	168.42	-1169.2	421.91	443.37	-1106.8	394.15	442.49	-1141.8	326.77	430.49	-1204.7	357.67	427.57	-625.56	37.134	156.41	-644.84	59.865	191.25	-622.93	33.521	223.55	-1350.7	135.13	386.29	-1337.9	160.7	353.53	-1330.9	127.14	321.61	-436.54	123.46	241.18	-458.1	101.49	134.59	-384.39	155.26	208.86	-1155.1	51.746	346.96	-1188.2	55.032	445.85	-1106.7	46.35	399.1	-897.29	1551.1	283.75
5	0.016731	-803.46	1491.2	454.88	-830.2	1493.1	103.56	-798.39	1772.2	271.01	-778.08	1431.4	280.31	-863.82	1067.4	126.75	-852.46	1081.4	453.88	-799.96	992.88	152.23	-784.8	986.56	427	-864.53	902.53	97.123	-882.23	927.01	486.76	-978.14	1046.2	246.4	-973.44	1054.3	338.2	-991.18	1019.4	293.43	-718.84	527.12	151.72	-748.81	502.32	283.32	-1034.2	544.97	438.85	-1035.8	556.29	304.33	-576.66	130.76	155.31	-576.01	128.25	227.91	-1252.2	167.36	411.8	-1234.4	179.35	322.42	-816.48	735.23	126.9	-756.27	753.68	147.83	-731.48	685.25	162.71	-790.29	664.5	138.71	-993.52	751.04	454.82	-927.96	735.1	463.34	-951.24	664.25	452.07	-1015.9	680.75	441.94	-699.85	441.76	150.21	-666.02	467.14	179.13	-652.9	409.64	181.13	-700.04	377.92	167.72	-1165.3	422.24	442.62	-1103	393.93	442.04	-1138.6	326.89	430.15	-1201.2	358.35	427.12	-624.08	36.488	155.93	-642.53	59.749	190.66	-621.54	33.128	222.97	-1349.1	137.23	386.07	-1336	162.58	353.21	-1329.4	129.01	321.33	-433.66	119.32	240.66	-455.56	97.596	134.14	-381.01	150.2	208.36	-1155.1	51.619	347.01	-1187.9	55.069	445.84	-1106.7	46.357	399.11	-891.64	1549.8	282.65
6	0.020913	-797.52	1490	453.7	-824.43	1491.8	102.42	-792.95	1771.1	270.19	-772.07	1430.2	279.24	-857.25	1066.1	126	-845.95	1080.1	453.29	-793.26	991.69	151.62	-778.39	985.17	426.46	-857.77	901.41	96.424	-876.2	925.71	486.15	-971.58	1044.9	245.7	-966.94	1052.9	337.5	-984.52	1018.1	292.69	-712.65	526.23	150.91	-743	501.69	282.56	-1029	544.15	438.17	-1030	555.2	303.68	-573.8	128.74	154.79	-573.2	126.3	227.43	-1250.3	168.41	411.7	-1232.2	180.09	322.35	-809.91	734.22	126.17	-749.78	752.52	147.15	-724.99	684.1	161.92	-783.86	663.43	138.02	-987.85	750.1	453.94	-922.37	734.01	462.79	-945.78	663.21	451.51	-1010.4	679.85	441.02	-694.4	440.71	149.5	-660.39	465.83	178.43	-647.75	408.2	180.48	-695.13	376.88	167.03	-1161.1	422.6	441.84	-1099.1	393.72	441.59	-1135.3	327.02	429.82	-1197.5	359.07	426.65	-622.66	35.92	155.48	-640.26	59.708	190.11	-620.2	32.815	222.43	-1347.4	139.45	385.87	-1334	164.56	352.9	-1327.8	131	321.05	-430.8	115.13	240.12	-453.07	93.664	133.67	-377.64	145.04	207.83	-1155.1	51.494	347.05	-1187.6	55.111	445.83	-1106.8	46.358	399.12	-885.85	1548.5	281.5
7	0.025096	-791.48	1488.9	452.49	-818.53	1490.6	101.24	-787.42	1770	269.35	-765.93	1429.1	278.12	-850.54	1064.9	125.24	-839.31	1078.8	452.69	-786.46	990.53	150.99	-771.84	983.8	425.89	-850.93	900.34	95.716	-870.02	924.4	485.53	-964.91	1043.6	244.99	-960.31	1051.6	336.8	-977.76	1016.8	291.95	-706.4	525.4	150.12	-737.09	501.16	281.81	-1023.6	543.31	437.48	-1024.1	554.07	303.03	-570.98	126.78	154.29	-570.43	124.4	226.97	-1248.2	169.51	411.62	-1229.8	180.86	322.32	-803.31	733.23	125.44	-743.25	751.37	146.42	-718.43	682.98	161.06	-777.4	662.4	137.32	-982.01	749.14	453.05	-916.62	732.91	462.22	-940.14	662.15	450.93	-1004.6	678.91	440.09	-688.9	439.72	148.81	-654.69	464.58	177.74	-642.55	406.82	179.83	-690.19	375.91	166.36	-1156.8	422.97	441.04	-1095	393.53	441.14	-1131.8	327.17	429.5	-1193.7	359.81	426.16	-621.3	35.437	155.07	-638.04	59.745	189.6	-618.92	32.586	221.94	-1345.4	141.8	385.68	-1331.8	166.65	352.61	-1326	133.11	320.78	-427.98	110.93	239.56	-450.67	89.729	133.19	-374.32	139.83	207.28	-1155.1	51.374	347.09	-1187.2	55.163	445.83	-1106.8	46.348	399.13	-879.95	1547.3	280.32
8	0.029278	-785.35	1487.8	451.25	-812.54	1489.5	100.01	-781.84	1769	268.5	-759.71	1428	276.97	-843.74	1063.6	124.47	-832.54	1077.6	452.08	-779.57	989.41	150.34	-765.18	982.45	425.31	-844.05	899.31	95.002	-863.7	923.1	484.89	-958.13	1042.3	244.29	-953.58	1050.3	336.11	-970.91	1015.5	291.22	-700.09	524.65	149.34	-731.09	500.73	281.08	-1018	542.44	436.79	-1018	552.91	302.37	-568.21	124.9	153.8	-567.7	122.57	226.54	-1246.1	170.66	411.58	-1227.3	181.66	322.33	-796.7	732.29	124.7	-736.69	750.26	145.62	-711.85	681.91	160.14	-770.93	661.41	136.61	-976.02	748.16	452.14	-910.7	731.81	461.63	-934.32	661.07	450.34	-998.73	677.95	439.14	-683.37	438.82	148.12	-648.96	463.39	177.04	-637.33	405.51	179.18	-685.22	375.02	165.71	-1152.3	423.35	440.22	-1090.8	393.34	440.71	-1128.2	327.34	429.2	-1189.7	360.57	425.65	-620.02	35.04	154.71	-635.89	59.857	189.13	-617.69	32.441	221.51	-1343.4	144.29	385.51	-1329.4	168.85	352.34	-1324.1	135.35	320.52	-425.23	106.75	239	-448.37	85.824	132.71	-371.07	134.61	206.7	-1155	51.26	347.14	-1186.9	55.226	445.83	-1106.9	46.326	399.15	-873.96	1546.1	279.09
